<svg xmlns="http://www.w3.org/2000/svg" viewBox="0 0 24 24" fill="white">
  <!-- Baroque wig top -->
  <path d="M6 8 Q5 5 8 4 Q10 2 12 2 Q14 2 16 4 Q19 5 18 8 L17 7 Q18 5 15 4.5 Q13 3 12 3 Q11 3 9 4.5 Q6 5 7 7 Z"/>
  <!-- Left side curls -->
  <circle cx="4" cy="10" r="2"/>
  <circle cx="3.5" cy="13" r="2"/>
  <circle cx="4" cy="16" r="1.8"/>
  <!-- Right side curls -->
  <circle cx="20" cy="10" r="2"/>
  <circle cx="20.5" cy="13" r="2"/>
  <circle cx="20" cy="16" r="1.8"/>
  <!-- Wig body connecting curls -->
  <path d="M6 8 L6 17 Q6 19 8 19 L16 19 Q18 19 18 17 L18 8"/>
  <!-- Face -->
  <ellipse cx="12" cy="15" rx="4.5" ry="5"/>
</svg>
