<svg xmlns="http://www.w3.org/2000/svg" viewBox="0 0 24 24" fill="white">
  <!-- Ballack - Intense look, short cropped hair, strong build -->
  <!-- Very short cropped hair -->
  <path d="M7 4.5c0-1.5 2-2.5 5-2.5s5 1 5 2.5c0 1-0.5 1.5-0.5 1.5H7.5s-0.5-0.5-0.5-1.5z"/>
  <!-- Head - square-ish, intense -->
  <path d="M7 6c-0.5 0.5-1 2-1 4s0.5 4 1.5 5l1.5 1h6l1.5-1c1-1 1.5-3 1.5-5s-0.5-3.5-1-4c0 0-1.5-1-5-1s-5 1-5 1z"/>
  <!-- Intense brow - furrowed -->
  <path d="M8 8l3-0.5M13 7.5l3 0.5" stroke="black" stroke-width="0.5"/>
  <!-- Strong neck -->
  <rect x="10" y="15" width="4" height="2"/>
  <!-- Powerful shoulders -->
  <path d="M6 17c-3 0.5-4 2-4 4v3h20v-3c0-2-1-3.5-4-4h-12z"/>
  <!-- Captain armband hint -->
  <rect x="3" y="19" width="2" height="1"/>
</svg>
