<svg xmlns="http://www.w3.org/2000/svg" viewBox="0 0 24 24" fill="white">
  <!-- Daniel Brühl - youthful, neat side-parted hair -->
  <path d="M12 3.5C9 3.5 7 5.5 7 8v2c0 0.5-0.3 1-0.5 1.5v0.5c0.2 0.3 0.5 0.3 0.5 0.5v0.5c0 2.5 2 4.5 5 5v1c-2.5 0.5-4 1-6 2h12c-2-1-3.5-1.5-6-2v-1c3-0.5 5-2.5 5-5v-0.5c0-0.2 0.3-0.2 0.5-0.5v-0.5c-0.2-0.5-0.5-1-0.5-1.5V8c0-2.5-2-4.5-5-4.5z"/>
  <!-- Neat side-parted hair -->
  <path d="M7 7c0-2 1.5-4 5-4 3 0 5 1.5 5.5 3.5 0-0.5-0.5-1-1-1.5-1-1-2.5-1.5-4.5-1.5-3 0-4.5 1.5-5 3.5z"/>
  <!-- Hair volume on top -->
  <path d="M8 5c1-1.5 2.5-2.5 4.5-2.5 2.5 0 4 1.5 4.5 3-0.5-2-2.5-3.5-5-3.5-2 0-3.5 1-4 3z"/>
</svg>
