<svg xmlns="http://www.w3.org/2000/svg" viewBox="0 0 24 24" fill="white">
  <!-- Gisele Bundchen - Beachy waves, athletic grace, dynamic pose -->
  <!-- Wild beachy waves hair -->
  <path d="M12 1 C9 1 7 2 6 4 C5 6 5 8 5.5 10 C4.5 10 4 9 4 7 C3.5 9 4 11 5 12 C5.5 14 6 15 7 15 C6.5 13 6 10 7 7 C8 4 10 2.5 12 2.5 C14 2.5 16 4 17 7 C18 10 17.5 13 17 15 C18 15 18.5 14 19 12 C20 11 20.5 9 20 7 C20 9 19.5 10 18.5 10 C19 8 19 6 18 4 C17 2 15 1 12 1"/>
  <!-- Face -->
  <ellipse cx="12" cy="6" rx="2.8" ry="3.2"/>
  <!-- Beach waves framing face -->
  <path d="M7 7 C6 9 5.5 12 6 15 C6 16 6.5 16.5 7 16 C6.5 13 7 10 8 8"/>
  <path d="M17 7 C18 9 18.5 12 18 15 C18 16 17.5 16.5 17 16 C17.5 13 17 10 16 8"/>
  <!-- Athletic neck -->
  <path d="M10.5 9 L10 11 L14 11 L13.5 9"/>
  <!-- Athletic graceful body - dynamic pose with movement -->
  <path d="M10 11 C7.5 11.5 5.5 12 4.5 13 C3.5 14 3.5 15 4.5 15.5 L6.5 16 L7 17 L6 20 L7 23 L9 23 L10 19 L11 16 L12 15 L13 16 L14 19 L15 23 L17 23 L18 20 L17 17 L17.5 16 L19.5 15.5 C20.5 15 20.5 14 19.5 13 C18.5 12 16.5 11.5 14 11"/>
  <!-- Flowing hair down back -->
  <path d="M6 15 C5 17 4.5 20 5 23 L6.5 23 C6 20 6.5 17 7 15"/>
  <path d="M18 15 C19 17 19.5 20 19 23 L17.5 23 C18 20 17.5 17 17 15"/>
</svg>
