<svg viewBox="0 0 24 24" fill="white" xmlns="http://www.w3.org/2000/svg">
  <!-- Dirk Nowitzki - Very tall basketball player, distinctive long face, blonde -->
  <!-- Long face - distinctive feature -->
  <ellipse cx="12" cy="8" rx="4" ry="6"/>
  <!-- Blonde spiky/messy hair -->
  <path d="M8 3 L7 1 L9 3 L10 0 L11 3 L12 1 L13 3 L14 0 L15 3 L17 1 L16 3"/>
  <path d="M8 3 Q12 2 16 3 Q16 5 12 4 Q8 5 8 3"/>
  <!-- Eyes -->
  <ellipse cx="10" cy="6.5" rx="1" ry="0.7" fill="black"/>
  <ellipse cx="14" cy="6.5" rx="1" ry="0.7" fill="black"/>
  <!-- Long nose -->
  <path d="M12 7 L12 10"/>
  <!-- Friendly smile -->
  <path d="M10 11 Q12 12 14 11" fill="none" stroke="black" stroke-width="0.4"/>
  <!-- Long neck - tall person -->
  <rect x="10" y="13" width="4" height="3"/>
  <!-- Basketball jersey with number -->
  <path d="M5 24 L8 16 L16 16 L19 24 Z"/>
  <!-- Jersey details - Mavs style -->
  <circle cx="12" cy="20" r="2" fill="black"/>
  <text x="12" y="21" font-size="3" fill="white" text-anchor="middle">41</text>
</svg>
