<svg xmlns="http://www.w3.org/2000/svg" viewBox="0 0 24 24" fill="white">
  <!-- Distinguished wavy hair swept back -->
  <path d="M5 11 Q4 8 6 6 Q5 4 8 3 Q10 2 12 2 Q14 2 16 3 Q19 4 18 6 Q20 8 19 11 L18 9 Q19 7 17 5 Q15 3.5 12 3.5 Q9 3.5 7 5 Q5 7 6 9 Z"/>
  <!-- Hair wave texture -->
  <path d="M7 6 Q9 5 11 6 Q13 5 15 6 Q17 5 18 6"/>
  <path d="M6 8 Q8 7 10 8 Q12 7 14 8 Q16 7 18 8"/>
  <!-- Face - distinguished older gentleman -->
  <ellipse cx="12" cy="14" rx="5" ry="6"/>
  <!-- High collar/cravat - period appropriate -->
  <path d="M8 20 L8 22 Q10 21 12 22 Q14 21 16 22 L16 20"/>
  <path d="M10 20 L12 22 L14 20"/>
  <!-- Slight distinguished expression -->
  <path d="M9 16 L10 15.5"/>
  <path d="M14 15.5 L15 16"/>
</svg>
