<svg viewBox="0 0 24 24" fill="white" xmlns="http://www.w3.org/2000/svg">
  <!-- David Hasselhoff - 80s hair, big smile, chest out, confident pose -->
  <!-- Head -->
  <ellipse cx="12" cy="7" rx="5" ry="5"/>
  <!-- BIG 80s HAIR - voluminous and curly -->
  <path d="M5 6 Q4 2 8 1 Q12 0 16 1 Q20 2 19 6 Q17 3 12 3 Q7 3 5 6"/>
  <path d="M5 6 Q4 8 6 9"/>
  <path d="M19 6 Q20 8 18 9"/>
  <!-- Curls in hair -->
  <path d="M7 3 Q6 4 7 5 Q8 4 7 3"/>
  <path d="M17 3 Q18 4 17 5 Q16 4 17 3"/>
  <!-- Confident eyes -->
  <ellipse cx="9.5" cy="6.5" rx="1" ry="0.8" fill="black"/>
  <ellipse cx="14.5" cy="6.5" rx="1" ry="0.8" fill="black"/>
  <!-- Nose -->
  <path d="M12 7 L12 9"/>
  <!-- BIG SMILE - his trademark -->
  <path d="M9 10 Q12 13 15 10" fill="black"/>
  <path d="M9.5 10 Q12 12 14.5 10" fill="white"/>
  <!-- Strong jaw -->
  <path d="M7 8 Q7 12 12 12 Q17 12 17 8"/>
  <!-- Muscular neck -->
  <rect x="9" y="12" width="6" height="2"/>
  <!-- Open chest - Baywatch style -->
  <path d="M3 24 L6 14 L9 15 L12 13 L15 15 L18 14 L21 24 Z"/>
  <!-- Chest exposed -->
  <path d="M9 15 L12 13 L15 15 L15 20 L9 20 Z" fill="black"/>
</svg>
