<svg xmlns="http://www.w3.org/2000/svg" viewBox="0 0 24 24" fill="white">
  <!-- Wild bushy hair -->
  <path d="M4 10 Q3 7 5 5 Q4 3 7 3 Q9 1 12 2 Q15 1 17 3 Q20 3 19 5 Q21 7 20 10 L19 8 Q20 6 18 5 Q19 4 16 4 Q17 3 12 3 Q7 3 8 4 Q5 4 6 5 Q4 6 5 8 Z"/>
  <!-- Upper face (small, mostly hidden by beard) -->
  <ellipse cx="12" cy="11" rx="5" ry="4"/>
  <!-- MASSIVE bushy beard covering most of face -->
  <path d="M4 12 Q3 13 4 15 Q3 18 5 20 Q7 23 12 23 Q17 23 19 20 Q21 18 20 15 Q21 13 20 12 Q19 11 17 11 Q15 10 12 10 Q9 10 7 11 Q5 11 4 12 Z"/>
  <!-- Beard texture -->
  <path d="M6 14 Q8 13 10 14 Q12 13 14 14 Q16 13 18 14"/>
  <path d="M7 17 Q9 16 12 17 Q15 16 17 17"/>
</svg>
