<svg xmlns="http://www.w3.org/2000/svg" viewBox="0 0 24 24" fill="white">
  <!-- Thomas Müller - Spiky messy hair, goofy expression -->
  <!-- Wild spiky hair -->
  <path d="M8 5l-1-3 2 2 1-2.5 1 2 1-3 1 2.5 1-2 1 2.5 1-2 2 3c1 0 1 2 0 3H7c-1-1-1-3 0-3z"/>
  <!-- Head - slightly elongated -->
  <ellipse cx="12" cy="10" rx="5" ry="5.5"/>
  <!-- Raised eyebrows for goofy look -->
  <path d="M8 7.5l2 0.5M14 8l2-0.5" stroke="black" stroke-width="0.5" fill="none"/>
  <!-- Wide goofy grin -->
  <path d="M8 12q4 4 8 0" fill="none" stroke="black" stroke-width="0.8"/>
  <!-- Big ears sticking out -->
  <ellipse cx="6" cy="10" rx="1.5" ry="2"/>
  <ellipse cx="18" cy="10" rx="1.5" ry="2"/>
  <!-- Shoulders - athletic -->
  <path d="M7 16c-3 1-4 3-4 5v3h18v-3c0-2-1-4-4-5l-2 1h-6l-2-1z"/>
</svg>
