<svg xmlns="http://www.w3.org/2000/svg" viewBox="0 0 24 24" fill="white">
  <!-- Hair - neat, swept to side -->
  <path d="M6 9 Q5 6 7 4 Q10 2 12 2 Q14 2 17 4 Q19 6 18 9 L17 7 Q16 4 12 4 Q8 4 7 7 Z"/>
  <!-- Head/Face -->
  <ellipse cx="12" cy="13" rx="5.5" ry="6"/>
  <!-- ENORMOUS handlebar/walrus mustache - THE key identifier -->
  <path d="M1 15 Q0 14 2 13 Q4 12 7 14 Q9 15 12 15 Q15 15 17 14 Q20 12 22 13 Q24 14 23 15 Q22 17 19 16 Q16 15 12 16 Q8 15 5 16 Q2 17 1 15 Z"/>
  <!-- Mustache thickness/volume -->
  <path d="M3 14 Q5 13 8 14.5 Q10 15.5 12 15.5 Q14 15.5 16 14.5 Q19 13 21 14"/>
  <!-- Intense eyes (just suggestion) -->
  <circle cx="9.5" cy="11" r="0.8"/>
  <circle cx="14.5" cy="11" r="0.8"/>
</svg>
