<svg viewBox="0 0 24 24" fill="white" xmlns="http://www.w3.org/2000/svg">
  <!-- Industrial/aggressive - flames rising from angular head -->
  <!-- Flames -->
  <path d="M12 0l2 4l-1 1l2 3l-3-1l1 3l-1 1v-2l-1 2l-1-3l1 1l-2-3l1-1z"/>
  <path d="M7 2l1.5 3l-0.5 1l1.5 2l-2-0.5l0.5 2l-1-1v3l-1-2z"/>
  <path d="M17 2l-1.5 3l0.5 1l-1.5 2l2-0.5l-0.5 2l1-1v3l1-2z"/>
  <!-- Bold angular head -->
  <path d="M5 10h14l-1 8h-12z"/>
  <!-- Dark visor/eyes -->
  <rect x="7" y="12" width="10" height="2" fill="black"/>
  <!-- Shoulders/body - industrial angular -->
  <path d="M3 19l4-1h10l4 1v5h-18z"/>
</svg>
