<svg xmlns="http://www.w3.org/2000/svg" viewBox="0 0 24 24" fill="white">
  <!-- Til Schweiger - rugged, stubble, confident, broader face -->
  <path d="M12 2C8 2 5.5 4.5 5.5 8v3c0 1-0.5 1-1 1.5v1c0.5 0.5 1 0.5 1 1v0.5c0 3.5 2.5 6 6.5 6s6.5-2.5 6.5-6v-0.5c0-0.5 0.5-0.5 1-1v-1c-0.5-0.5-1-0.5-1-1.5V8c0-3.5-2.5-6-6.5-6z"/>
  <!-- Messy short hair -->
  <path d="M5.5 7c0.5-3 3-5.5 6.5-5.5s6 2.5 6.5 5.5c0.5-1 0-2-0.5-3-1-2-3-3.5-6-3.5s-5 1.5-6 3.5c-0.5 1-1 2-0.5 3z"/>
  <!-- Stubble texture dots -->
  <circle cx="9" cy="16" r="0.3"/>
  <circle cx="10.5" cy="16.5" r="0.3"/>
  <circle cx="12" cy="17" r="0.3"/>
  <circle cx="13.5" cy="16.5" r="0.3"/>
  <circle cx="15" cy="16" r="0.3"/>
  <circle cx="9.5" cy="15" r="0.3"/>
  <circle cx="14.5" cy="15" r="0.3"/>
</svg>
