<svg xmlns="http://www.w3.org/2000/svg" viewBox="0 0 24 24" fill="white">
  <!-- Schweinsteiger - Strong jaw, neat side-parted hair -->
  <!-- Neat side-parted hair -->
  <path d="M6 5c0-2 2.5-3 6-3s6 1 6 3c0 1.5-2 2-2 2H8s-2-0.5-2-2z"/>
  <!-- Hair part line -->
  <path d="M9 2.5v2" stroke="black" stroke-width="0.3"/>
  <!-- Head with strong jaw -->
  <path d="M7 7c-1 0-1.5 2-1.5 4s0.5 3 1.5 4l2 1h6l2-1c1-1 1.5-2 1.5-4s-0.5-4-1.5-4c0 0-2-1-5-1s-5 1-5 1z"/>
  <!-- Strong jawline emphasis -->
  <path d="M8 14l4 2 4-2"/>
  <!-- Athletic shoulders -->
  <path d="M7 17c-3 0.5-4 2-4 4v3h18v-3c0-2-1-3.5-4-4l-2 1h-6l-2-1z"/>
  <!-- V-neck jersey -->
  <path d="M10 17l2 2 2-2"/>
</svg>
