<svg xmlns="http://www.w3.org/2000/svg" viewBox="0 0 24 24" fill="white">
  <!-- Sebastian Vettel - Modern F1 helmet with rounded profile -->
  <path d="M5 13c0-5.5 3-9 7-9s7 3.5 7 9c0 2.5-1 4-2 5l-1 1v1c0 0.5-0.5 1-1 1H9c-0.5 0-1-0.5-1-1v-1l-1-1c-1-1-2-2.5-2-5z"/>
  <!-- Helmet top ridge -->
  <path d="M9 5c1-0.5 2-0.8 3-0.8s2 0.3 3 0.8" stroke="black" stroke-width="0.8" fill="none" opacity="0.3"/>
  <!-- Visor - curved modern style -->
  <path d="M6.5 12c0-3 2.5-5.5 5.5-5.5s5.5 2.5 5.5 5.5c0 0.8-0.2 1.5-0.5 2H7c-0.3-0.5-0.5-1.2-0.5-2z" fill="black" opacity="0.35"/>
  <!-- Visor slit - angled -->
  <path d="M7 11.5l10 -1v2.5l-10 1z" fill="black" opacity="0.7"/>
</svg>
