<svg xmlns="http://www.w3.org/2000/svg" viewBox="0 0 24 24" fill="white">
  <!-- Pickelhaube spike - THE key identifier -->
  <path d="M11 1 L12 0 L13 1 L13 4 L11 4 Z"/>
  <!-- Pickelhaube helmet body -->
  <path d="M5 10 Q4 8 6 6 Q8 4 12 4 Q16 4 18 6 Q20 8 19 10 L19 12 L5 12 Z"/>
  <!-- Helmet rim/visor -->
  <path d="M4 12 L20 12 L19 14 L5 14 Z"/>
  <!-- Face -->
  <ellipse cx="12" cy="18" rx="5" ry="5"/>
  <!-- Stern mustache -->
  <path d="M7 18 Q9 17 12 17 Q15 17 17 18 Q15 19.5 12 19.5 Q9 19.5 7 18 Z"/>
</svg>
