<svg xmlns="http://www.w3.org/2000/svg" viewBox="0 0 24 24" fill="white">
  <!-- Carla Bruni - Sophisticated, elegant updo, refined pose -->
  <!-- Elegant updo/bun -->
  <ellipse cx="12" cy="2.5" rx="3" ry="2"/>
  <!-- Hair volume at crown -->
  <path d="M9 2 C8 1.5 7.5 2 8 3 C8.5 4 9 4.5 10 4.5 L10 3 C9.5 3 9 2.5 9 2"/>
  <path d="M15 2 C16 1.5 16.5 2 16 3 C15.5 4 15 4.5 14 4.5 L14 3 C14.5 3 15 2.5 15 2"/>
  <!-- Refined face -->
  <ellipse cx="12" cy="6" rx="2.5" ry="3"/>
  <!-- Elegant wisps of hair -->
  <path d="M9.5 4 C8.5 4.5 8 5.5 8 7 C8 5 8.5 4 9.5 4"/>
  <path d="M14.5 4 C15.5 4.5 16 5.5 16 7 C16 5 15.5 4 14.5 4"/>
  <!-- Long graceful neck - very elegant -->
  <path d="M10.5 9 L10 12 L14 12 L13.5 9"/>
  <!-- Sophisticated shoulders and body -->
  <path d="M10 12 C7 12.5 5 13 4 14 C3 15 3.5 16 5 16.5 L7 17 L8.5 21 L9.5 23 L11 23 L11.5 18 L12 16 L12.5 18 L13 23 L14.5 23 L15.5 21 L17 17 L19 16.5 C20.5 16 21 15 20 14 C19 13 17 12.5 14 12"/>
  <!-- Elegant earring accent -->
  <circle cx="9" cy="7.5" r="0.5"/>
  <circle cx="15" cy="7.5" r="0.5"/>
</svg>
