<svg viewBox="0 0 24 24" fill="white" xmlns="http://www.w3.org/2000/svg">
  <!-- 80s style - slicked back hair, sunglasses, cool pose -->
  <!-- Slicked back hair -->
  <path d="M8 3c0-1 2-2 4-2s4 1 4 2c1 0 2 1 2 3l-1 4h-10l-1-4c0-2 1-3 2-3z"/>
  <!-- Face -->
  <path d="M7 8h10v7c0 2-2 4-5 4s-5-2-5-4z"/>
  <!-- Cool angular sunglasses -->
  <path d="M6 10h5l-1 3h-3.5z" fill="black"/>
  <path d="M18 10h-5l1 3h3.5z" fill="black"/>
  <rect x="11" y="11" width="2" height="1" fill="black"/>
  <!-- Neck -->
  <rect x="10" y="18" width="4" height="2"/>
  <!-- Jacket collar - cool 80s style -->
  <path d="M6 20l4 0l2 4h-8z"/>
  <path d="M18 20l-4 0l-2 4h8z"/>
</svg>
