<svg xmlns="http://www.w3.org/2000/svg" viewBox="0 0 24 24" fill="white">
  <!-- Michael Fassbender - strong jaw, intense, short hair -->
  <path d="M12 2C8.5 2 6 4 6 7v2c0 1-0.5 1.5-1 2v1c0.5 0.5 1 0.5 1 1v1c0 3 2 5.5 6 6v1c-3 0.5-5 1-7 2h14c-2-1-4-1.5-7-2v-1c4-0.5 6-3 6-6v-1c0-0.5 0.5-0.5 1-1v-1c-0.5-0.5-1-1-1-2V7c0-3-2.5-5-6-5z"/>
  <!-- Strong jaw emphasis -->
  <path d="M8 14c0 2 1.5 4 4 4s4-2 4-4c0 0-1 2-4 2s-4-2-4-2z"/>
  <!-- Short cropped hair -->
  <path d="M6.5 6C7 4 9 2.5 12 2.5S17 4 17.5 6c0-2-2-4-5.5-4S6.5 4 6.5 6z"/>
</svg>
