<svg viewBox="0 0 24 24" fill="white" xmlns="http://www.w3.org/2000/svg">
  <!-- Steffi Graf - Tennis player, ponytail, athletic, determined -->
  <!-- Head -->
  <ellipse cx="12" cy="8" rx="4.5" ry="5"/>
  <!-- Hair pulled back with ponytail -->
  <path d="M7 5 Q8 3 12 3 Q16 3 17 5 Q15 4 12 4 Q9 4 7 5"/>
  <!-- Signature ponytail swinging -->
  <path d="M16 4 Q19 3 20 5 Q21 8 19 12 Q18 14 17 12 Q19 8 17 5 Z"/>
  <ellipse cx="18" cy="13" rx="1.5" ry="2"/>
  <!-- Athletic headband -->
  <rect x="7" y="3.5" width="10" height="1.5" rx="0.3"/>
  <!-- Focused competitive eyes -->
  <ellipse cx="10" cy="7" rx="1" ry="0.7" fill="black"/>
  <ellipse cx="14" cy="7" rx="1" ry="0.7" fill="black"/>
  <!-- Nose -->
  <path d="M12 8 L12 10"/>
  <!-- Determined expression -->
  <path d="M10 11 Q12 11.5 14 11" fill="none" stroke="black" stroke-width="0.4"/>
  <!-- Feminine but athletic jaw -->
  <path d="M7.5 8 Q8 12 12 12 Q16 12 16.5 8"/>
  <!-- Neck -->
  <rect x="10" y="12" width="4" height="2"/>
  <!-- Tennis outfit - athletic top -->
  <path d="M5 24 L7 14 L17 14 L19 24 Z"/>
  <!-- Athletic collar -->
  <path d="M9 14 L12 16 L15 14" fill="none" stroke="black" stroke-width="0.5"/>
  <!-- Shoulder definition - athletic -->
  <path d="M5 17 Q7 15 9 16"/>
  <path d="M19 17 Q17 15 15 16"/>
</svg>
