<svg xmlns="http://www.w3.org/2000/svg" viewBox="0 0 24 24" fill="white">
  <!-- Hanna Schygulla - 70s style, elegant, voluminous hair -->
  <path d="M12 5C9.5 5 8 6.5 8 9v1.5c0 0.5-0.3 0.8-0.5 1.2v0.5c0.2 0.2 0.5 0.2 0.5 0.4v0.4c0 2 1.5 4 4 4.5v1c-2 0.5-3.5 1-5 2h10c-1.5-1-3-1.5-5-2v-1c2.5-0.5 4-2.5 4-4.5v-0.4c0-0.2 0.3-0.2 0.5-0.4v-0.5c-0.2-0.4-0.5-0.7-0.5-1.2V9c0-2.5-1.5-4-4-4z"/>
  <!-- 70s voluminous wavy hair left -->
  <path d="M8 9c-1.5 0-3 1-3.5 3-0.5 1.5-0.5 3 0 5 0.5 1.5 1 2.5 1.5 3 0-1-0.5-2-0.5-3.5 0-2 0.5-4 1.5-5.5 0.5-0.8 0.8-1.5 1-2z"/>
  <!-- 70s voluminous wavy hair right -->
  <path d="M16 9c1.5 0 3 1 3.5 3 0.5 1.5 0.5 3 0 5-0.5 1.5-1 2.5-1.5 3 0-1 0.5-2 0.5-3.5 0-2-0.5-4-1.5-5.5-0.5-0.8-0.8-1.5-1-2z"/>
  <!-- Big 70s hair volume on top -->
  <path d="M6 8c0.5-2 2-4 6-4s5.5 2 6 4c0-3-2.5-5.5-6-5.5S6 5 6 8z"/>
  <!-- Hair wave texture -->
  <path d="M5.5 12c-0.3 1-0.3 2 0 3 0.2-0.8 0.2-1.8 0-3z"/>
  <path d="M18.5 12c0.3 1 0.3 2 0 3-0.2-0.8-0.2-1.8 0-3z"/>
</svg>
