<svg xmlns="http://www.w3.org/2000/svg" viewBox="0 0 24 24" fill="white">
  <!-- Heidi Klum - Long flowing hair, confident elegant pose -->
  <!-- Head -->
  <ellipse cx="12" cy="5" rx="3" ry="3.5"/>
  <!-- Flowing hair left side -->
  <path d="M9 3 C7 2.5 5.5 4 5 7 C4.5 10 5 14 6 17 C6.5 18 7 18 7.5 17 C7 14 7 10 8 7 C8.5 5 9 4 9 3"/>
  <!-- Flowing hair right side -->
  <path d="M15 3 C17 2.5 18.5 4 19 7 C19.5 10 19 14 18 17 C17.5 18 17 18 16.5 17 C17 14 17 10 16 7 C15.5 5 15 4 15 3"/>
  <!-- Elegant neck -->
  <path d="M10.5 8 L10 10 L14 10 L13.5 8"/>
  <!-- Shoulders and body - confident pose -->
  <path d="M10 10 C7 10.5 5 11 4 12 C3 13 3 14 4 15 L6 15 L8 19 L9 23 L11 23 L11 16 L12 14 L13 16 L13 23 L15 23 L16 19 L18 15 L20 15 C21 14 21 13 20 12 C19 11 17 10.5 14 10"/>
  <!-- Hair accent flowing over shoulder -->
  <path d="M6 17 C5.5 19 5.5 21 6 23 L7.5 23 C7 21 7 19 7.5 17"/>
  <path d="M18 17 C18.5 19 18.5 21 18 23 L16.5 23 C17 21 17 19 16.5 17"/>
</svg>
