<svg xmlns="http://www.w3.org/2000/svg" viewBox="0 0 24 24" fill="white">
  <!-- Diane Kruger - elegant feminine silhouette, flowing hair -->
  <path d="M12 3C9 3 7 5 7 8v2c0 0.5-0.3 1-0.5 1.5v0.5c0.2 0.3 0.5 0.3 0.5 0.5v0.5c0 2.5 2 4.5 5 5v1c-2.5 0.5-4 1-6 2h12c-2-1-3.5-1.5-6-2v-1c3-0.5 5-2.5 5-5v-0.5c0-0.2 0.3-0.2 0.5-0.5v-0.5c-0.2-0.5-0.5-1-0.5-1.5V8c0-3-2-5-5-5z"/>
  <!-- Flowing hair left -->
  <path d="M7 8c-1 0-2 2-2.5 5-0.5 2-0.5 4 0 6 0.5-2 0.5-4 1-5.5 0.3-1 0.5-2 0.5-3 0-1 0.5-2 1-2.5z"/>
  <!-- Flowing hair right -->
  <path d="M17 8c1 0 2 2 2.5 5 0.5 2 0.5 4 0 6-0.5-2-0.5-4-1-5.5-0.3-1-0.5-2-0.5-3 0-1-0.5-2-1-2.5z"/>
  <!-- Top of hair -->
  <path d="M7 7c0.5-2.5 2.5-4.5 5-4.5s4.5 2 5 4.5c0-3-2.5-5-5-5s-5 2-5 5z"/>
</svg>
