<svg xmlns="http://www.w3.org/2000/svg" viewBox="0 0 24 24" fill="white">
  <!-- Lothar Matthäus - Receding hairline, determined, compact -->
  <!-- Receding hairline - KEY feature -->
  <path d="M9 4c0-1 1.5-2 3-2s3 1 3 2c0 0.5-1 1-1 1h-4c0 0-1-0.5-1-1z"/>
  <!-- Exposed forehead sides -->
  <path d="M6 6c0 0 1-1 2-1h8c1 0 2 1 2 1"/>
  <!-- Head - determined expression -->
  <ellipse cx="12" cy="10" rx="5" ry="5.5"/>
  <!-- High forehead visible -->
  <path d="M8 5c0-0.5 1-1.5 4-1.5s4 1 4 1.5" fill="none" stroke="white" stroke-width="0.5"/>
  <!-- Determined eyes - slight squint -->
  <path d="M8.5 9h2.5M13 9h2.5" stroke="black" stroke-width="0.8"/>
  <!-- Small ears -->
  <ellipse cx="6.5" cy="10" rx="1" ry="1.5"/>
  <ellipse cx="17.5" cy="10" rx="1" ry="1.5"/>
  <!-- Compact strong shoulders -->
  <path d="M7 16c-3 0.5-5 2-5 4v4h20v-4c0-2-2-3.5-5-4l-2 1h-6l-2-1z"/>
</svg>
