<svg xmlns="http://www.w3.org/2000/svg" viewBox="0 0 24 24" fill="white">
  <!-- Neuer - Goalkeeper with raised gloves, determined -->
  <!-- Short neat hair -->
  <path d="M7 5c0-2 2-3 5-3s5 1 5 3c0 1-1 2-1 2H8c0 0-1-1-1-2z"/>
  <!-- Head - strong determined look -->
  <ellipse cx="12" cy="9" rx="4.5" ry="5"/>
  <!-- Determined brow -->
  <path d="M8 7h3M13 7h3" stroke="black" stroke-width="0.7"/>
  <!-- Goalkeeper gloves raised high - KEY feature -->
  <!-- Left glove -->
  <path d="M2 2v5l2 1v-4l1 0v3l1 0v-3l1 0v4l-2 2-2-1v-6z"/>
  <!-- Right glove -->
  <path d="M22 2v5l-2 1v-4l-1 0v3l-1 0v-3l-1 0v4l2 2 2-1v-6z"/>
  <!-- Arms raised -->
  <path d="M5 9l-1-2M19 9l1-2" stroke="white" stroke-width="2"/>
  <!-- Goalkeeper jersey - broad shoulders -->
  <path d="M6 14c-3 0.5-4 2-4 4v6h20v-6c0-2-1-3.5-4-4l-2 1h-8l-2-1z"/>
  <!-- Jersey number 1 hint -->
  <rect x="11" y="17" width="2" height="4"/>
</svg>
