<svg xmlns="http://www.w3.org/2000/svg" viewBox="0 0 24 24" fill="white">
  <!-- Claudia Schiffer - Iconic 90s supermodel, voluminous blonde waves -->
  <!-- Big 90s voluminous hair -->
  <path d="M12 1 C8 1 5 2 4 5 C3 8 3.5 11 4 13 C4.5 15 5 16 6 16 C6 14 5.5 11 6 8 C6.5 5 8 3 12 3 C16 3 17.5 5 18 8 C18.5 11 18 14 18 16 C19 16 19.5 15 20 13 C20.5 11 21 8 20 5 C19 2 16 1 12 1"/>
  <!-- Face -->
  <ellipse cx="12" cy="6.5" rx="2.8" ry="3.2"/>
  <!-- Elegant neck -->
  <path d="M10.5 9.5 L10.2 11 L13.8 11 L13.5 9.5"/>
  <!-- Waves framing face -->
  <path d="M6 8 C5 10 4.5 13 5 16 C5 17 5.5 18 6 18 C5.5 15 6 12 7 9 C7.5 7 8 6 8 6 C7 6 6.5 7 6 8"/>
  <path d="M18 8 C19 10 19.5 13 19 16 C19 17 18.5 18 18 18 C18.5 15 18 12 17 9 C16.5 7 16 6 16 6 C17 6 17.5 7 18 8"/>
  <!-- Body - glamorous pose -->
  <path d="M10.2 11 C7.5 11.5 5.5 12 4.5 13 C3.5 14 4 15 5 15.5 L7 16 L8 20 L9 23 L11 23 L11.5 17 L12 15 L12.5 17 L13 23 L15 23 L16 20 L17 16 L19 15.5 C20 15 20.5 14 19.5 13 C18.5 12 16.5 11.5 13.8 11"/>
  <!-- Hair flowing down sides -->
  <path d="M5 16 C4.5 18 4.5 20 5 22 L5 23 L7 23 L7 22 C6.5 20 6.5 18 7 16"/>
  <path d="M19 16 C19.5 18 19.5 20 19 22 L19 23 L17 23 L17 22 C17.5 20 17.5 18 17 16"/>
</svg>
