<svg viewBox="0 0 24 24" fill="white" xmlns="http://www.w3.org/2000/svg">
  <!-- Rock aesthetic - long flowing hair with scorpion tail hint -->
  <!-- Long flowing hair -->
  <path d="M8 2c-3 2-4 6-4 10c0 3 1 5 2 7h2c-1-2-1-4-1-6c0-3 1-6 3-8z"/>
  <path d="M16 2c3 2 4 6 4 10c0 3-1 5-2 7h-2c1-2 1-4 1-6c0-3-1-6-3-8z"/>
  <!-- Head -->
  <ellipse cx="12" cy="8" rx="4" ry="5"/>
  <!-- Neck and shoulders -->
  <path d="M9 12h6v3h-6z"/>
  <path d="M4 16h16l-2 8h-12z"/>
  <!-- Scorpion tail curving from shoulder -->
  <path d="M19 18c2-1 3-3 3-5c0-1-0.5-2-1-2l-1 1c0.3 0.3 0.5 0.7 0.5 1c0 1.5-1 3-2.5 4z"/>
  <circle cx="22" cy="11" r="1"/>
</svg>
