<svg xmlns="http://www.w3.org/2000/svg" viewBox="0 0 24 24" fill="white">
  <!-- Christoph Waltz - distinguished older gentleman, slight smile, receding hairline -->
  <path d="M12 4C9 4 7 6 7 9v2c0 0.5-0.3 1-0.5 1.5v0.5c0.2 0.3 0.5 0.3 0.5 0.5v0.5c0 2.5 2 4.5 5 5v1c-2.5 0.5-4 1-6 2h12c-2-1-3.5-1.5-6-2v-1c3-0.5 5-2.5 5-5v-0.5c0-0.2 0.3-0.2 0.5-0.5v-0.5c-0.2-0.5-0.5-1-0.5-1.5V9c0-3-2-5-5-5z"/>
  <!-- Receding hairline - distinguished look -->
  <path d="M8 7c0.5-1.5 2-3 4-3s3.5 1.5 4 3c0.5-0.5 0.5-1 0.5-1.5 0-2-2-3.5-4.5-3.5s-4.5 1.5-4.5 3.5c0 0.5 0 1 0.5 1.5z"/>
  <!-- Slight smile curve -->
  <path d="M9.5 15.5c0 0 1 1.5 2.5 1.5s2.5-1.5 2.5-1.5c-0.5 1-1.5 1.5-2.5 1.5s-2-0.5-2.5-1.5z"/>
  <!-- Wisdom lines -->
  <path d="M8 12.5c0.3-0.2 0.5-0.3 0.7-0.3"/>
  <path d="M16 12.5c-0.3-0.2-0.5-0.3-0.7-0.3"/>
</svg>
